<svg width="150" height="170" viewBox="0 0 150 170" fill="none" xmlns="http://www.w3.org/2000/svg">
<path fill-rule="evenodd" clip-rule="evenodd" d="M0 3.38922H25.0375V92.4336H0V3.38922ZM2.53545 6.16224H4.75397V8.31903H2.53545V6.16224ZM4.75397 26.4976H2.53545V28.6544H4.75397V26.4976ZM2.53545 46.833H4.75397V48.9898H2.53545V46.833ZM4.75397 67.1684H2.53545V69.3252H4.75397V67.1684ZM2.53545 12.9407H4.75397V15.0975H2.53545V12.9407ZM4.75397 33.2761H2.53545V35.4329H4.75397V33.2761ZM2.53545 53.6115H4.75397V55.7683H2.53545V53.6115ZM4.75397 73.9469H2.53545V76.1036H4.75397V73.9469ZM2.53545 87.5039H4.75397V89.6606H2.53545V87.5039ZM4.75397 19.7191H2.53545V21.8759H4.75397V19.7191ZM2.53545 40.0545H4.75397V42.2113H2.53545V40.0545ZM4.75397 60.39H2.53545V62.5467H4.75397V60.39ZM2.53545 80.7254H4.75397V82.8821H2.53545V80.7254ZM22.5021 6.16224H20.2836V8.31903H22.5021V6.16224ZM20.2836 26.4976H22.5021V28.6544H20.2836V26.4976ZM22.5021 46.833H20.2836V48.9898H22.5021V46.833ZM20.2836 67.1684H22.5021V69.3252H20.2836V67.1684ZM22.5021 12.9407H20.2836V15.0975H22.5021V12.9407ZM20.2836 33.2761H22.5021V35.4329H20.2836V33.2761ZM22.5021 53.6115H20.2836V55.7683H22.5021V53.6115ZM20.2836 73.9469H22.5021V76.1036H20.2836V73.9469ZM22.5021 87.5039H20.2836V89.6606H22.5021V87.5039ZM20.2836 19.7191H22.5021V21.8759H20.2836V19.7191ZM22.5021 40.0545H20.2836V42.2113H22.5021V40.0545ZM20.2836 60.39H22.5021V62.5467H20.2836V60.39ZM22.5021 80.7254H20.2836V82.8821H22.5021V80.7254Z" fill="#FFD700"/>
<path fill-rule="evenodd" clip-rule="evenodd" d="M100.15 7.172L124.172 0.308099L150 85.7388L125.979 92.6027L100.15 7.172ZM103.387 9.13743L105.516 8.52924L106.141 10.5985L104.013 11.2067L103.387 9.13743ZM111.414 28.0394L109.286 28.6476L109.911 30.7168L112.04 30.1086L111.414 28.0394ZM115.184 48.1577L117.313 47.5495L117.938 49.6187L115.81 50.2269L115.184 48.1577ZM123.211 67.0596L121.083 67.6678L121.708 69.7371L123.837 69.1289L123.211 67.0596ZM105.353 15.6408L107.482 15.0326L108.107 17.1019L105.979 17.7101L105.353 15.6408ZM113.38 34.5427L111.252 35.1509L111.877 37.2202L114.006 36.612L113.38 34.5427ZM117.15 54.661L119.279 54.0529L119.904 56.1221L117.776 56.7303L117.15 54.661ZM125.177 73.5629L123.049 74.1711L123.674 76.2404L125.803 75.6322L125.177 73.5629ZM126.981 87.1779L129.11 86.5697L129.735 88.639L127.607 89.2472L126.981 87.1779ZM109.448 21.5359L107.319 22.1441L107.945 24.2134L110.074 23.6052L109.448 21.5359ZM113.218 41.6543L115.346 41.0461L115.972 43.1154L113.844 43.7236L113.218 41.6543ZM121.245 60.5562L119.116 61.1644L119.742 63.2337L121.871 62.6255L121.245 60.5562ZM125.015 80.6745L127.143 80.0664L127.769 82.1356L125.641 82.7438L125.015 80.6745ZM122.543 3.66363L120.415 4.27182L121.041 6.34108L123.169 5.73289L122.543 3.66363ZM126.313 23.782L128.442 23.1738L129.068 25.2431L126.939 25.8512L126.313 23.782ZM134.34 42.6839L132.212 43.2921L132.838 45.3614L134.966 44.7532L134.34 42.6839ZM138.11 62.8022L140.239 62.194L140.865 64.2633L138.736 64.8715L138.11 62.8022ZM124.51 10.167L122.381 10.7752L123.007 12.8445L125.135 12.2363L124.51 10.167ZM128.28 30.2854L130.408 29.6772L131.034 31.7464L128.905 32.3546L128.28 30.2854ZM136.307 49.1873L134.178 49.7955L134.804 51.8647L136.932 51.2565L136.307 49.1873ZM140.077 69.3056L142.205 68.6974L142.831 70.7667L140.702 71.3749L140.077 69.3056ZM146.137 81.7042L144.009 82.3124L144.635 84.3816L146.763 83.7734L146.137 81.7042ZM124.347 17.2786L126.476 16.6704L127.101 18.7397L124.973 19.3479L124.347 17.2786ZM132.374 36.1805L130.246 36.7887L130.871 38.858L133 38.2498L132.374 36.1805ZM136.144 56.2989L138.273 55.6907L138.898 57.7599L136.77 58.3681L136.144 56.2989ZM144.171 75.2008L142.043 75.809L142.668 77.8782L144.797 77.27L144.171 75.2008Z" fill="#32CD32"/>
<path fill-rule="evenodd" clip-rule="evenodd" d="M69.7247 0H94.7623V92.4336H69.7247V0ZM72.2602 2.87859H74.4787V5.11746H72.2602V2.87859ZM74.4787 23.9879H72.2602V26.2268H74.4787V23.9879ZM72.2602 45.0974H74.4787V47.3363H72.2602V45.0974ZM74.4787 66.2068H72.2602V68.4457H74.4787V66.2068ZM72.2602 9.91502H74.4787V12.1539H72.2602V9.91502ZM74.4787 31.0244H72.2602V33.2633H74.4787V31.0244ZM72.2602 52.1339H74.4787V54.3727H72.2602V52.1339ZM74.4787 73.2433H72.2602V75.4821H74.4787V73.2433ZM72.2602 87.3162H74.4787V89.5551H72.2602V87.3162ZM74.4787 16.9515H72.2602V19.1904H74.4787V16.9515ZM72.2602 38.0609H74.4787V40.2998H72.2602V38.0609ZM74.4787 59.1703H72.2602V61.4092H74.4787V59.1703ZM72.2602 80.2797H74.4787V82.5186H72.2602V80.2797ZM92.2268 2.87859H90.0083V5.11746H92.2268V2.87859ZM90.0083 23.9879H92.2268V26.2268H90.0083V23.9879ZM92.2268 45.0974H90.0083V47.3363H92.2268V45.0974ZM90.0083 66.2068H92.2268V68.4457H90.0083V66.2068ZM92.2268 9.91502H90.0083V12.1539H92.2268V9.91502ZM90.0083 31.0244H92.2268V33.2633H90.0083V31.0244ZM92.2268 52.1339H90.0083V54.3727H92.2268V52.1339ZM90.0083 73.2433H92.2268V75.4821H90.0083V73.2433ZM92.2268 87.3162H90.0083V89.5551H92.2268V87.3162ZM90.0083 16.9515H92.2268V19.1904H90.0083V16.9515ZM92.2268 38.0609H90.0083V40.2998H92.2268V38.0609ZM90.0083 59.1703H92.2268V61.4092H90.0083V59.1703ZM92.2268 80.2797H90.0083V82.5186H92.2268V80.2797Z" fill="#BA35CF"/>
<path fill-rule="evenodd" clip-rule="evenodd" d="M34 18.6159H59V92H34V18.6159ZM36.5316 21.3564H38.7468V23.4879H36.5316V21.3564ZM38.7468 41.4533H36.5316V43.5848H38.7468V41.4533ZM36.5316 61.5502H38.7468V63.6817H36.5316V61.5502ZM38.7468 81.647H36.5316V83.7785H38.7468V81.647ZM36.5316 28.0554H38.7468V30.1868H36.5316V28.0554ZM38.7468 48.1522H36.5316V50.2837H38.7468V48.1522ZM36.5316 68.2491H38.7468V70.3806H36.5316V68.2491ZM38.7468 88.346H36.5316V90.4775H38.7468V88.346ZM36.5316 34.7543H38.7468V36.8858H36.5316V34.7543ZM38.7468 54.8512H36.5316V56.9827H38.7468V54.8512ZM36.5316 74.9481H38.7468V77.0796H36.5316V74.9481ZM56.4684 21.3564H54.2532V23.4879H56.4684V21.3564ZM54.2532 41.4533H56.4684V43.5848H54.2532V41.4533ZM56.4684 61.5502H54.2532V63.6817H56.4684V61.5502ZM54.2532 81.647H56.4684V83.7785H54.2532V81.647ZM56.4684 28.0554H54.2532V30.1868H56.4684V28.0554ZM54.2532 48.1522H56.4684V50.2837H54.2532V48.1522ZM56.4684 68.2491H54.2532V70.3806H56.4684V68.2491ZM54.2532 88.346H56.4684V90.4775H54.2532V88.346ZM56.4684 34.7543H54.2532V36.8858H56.4684V34.7543ZM54.2532 54.8512H56.4684V56.9827H54.2532V54.8512ZM56.4684 74.9481H54.2532V77.0796H56.4684V74.9481Z" fill="#00BFFF"/>
<path d="M3.90625 104.25H7.40625L13.9844 121.797L20.5469 104.25H24.0469L15.3594 127H12.5781L3.90625 104.25ZM2.3125 104.25H5.64062L6.21875 119.438V127H2.3125V104.25ZM22.3125 104.25H25.6562V127H21.7344V119.438L22.3125 104.25ZM52.2931 115V116.25C52.2931 117.969 52.0692 119.51 51.6213 120.875C51.1733 122.24 50.5327 123.401 49.6994 124.359C48.8765 125.318 47.8869 126.052 46.7306 126.562C45.5744 127.062 44.2931 127.312 42.8869 127.312C41.491 127.312 40.215 127.062 39.0588 126.562C37.9129 126.052 36.9181 125.318 36.0744 124.359C35.2306 123.401 34.5744 122.24 34.1056 120.875C33.6473 119.51 33.4181 117.969 33.4181 116.25V115C33.4181 113.281 33.6473 111.745 34.1056 110.391C34.564 109.026 35.2098 107.865 36.0431 106.906C36.8869 105.938 37.8817 105.203 39.0275 104.703C40.1838 104.193 41.4598 103.938 42.8556 103.938C44.2619 103.938 45.5431 104.193 46.6994 104.703C47.8556 105.203 48.8504 105.938 49.6838 106.906C50.5171 107.865 51.1577 109.026 51.6056 110.391C52.064 111.745 52.2931 113.281 52.2931 115ZM48.3713 116.25V114.969C48.3713 113.698 48.2463 112.578 47.9963 111.609C47.7567 110.63 47.3973 109.812 46.9181 109.156C46.4494 108.49 45.8713 107.99 45.1838 107.656C44.4963 107.312 43.7202 107.141 42.8556 107.141C41.991 107.141 41.2202 107.312 40.5431 107.656C39.866 107.99 39.2879 108.49 38.8088 109.156C38.34 109.812 37.9806 110.63 37.7306 111.609C37.4806 112.578 37.3556 113.698 37.3556 114.969V116.25C37.3556 117.521 37.4806 118.646 37.7306 119.625C37.9806 120.604 38.3452 121.432 38.8244 122.109C39.314 122.776 39.8973 123.281 40.5744 123.625C41.2515 123.958 42.0223 124.125 42.8869 124.125C43.7619 124.125 44.5379 123.958 45.215 123.625C45.8921 123.281 46.465 122.776 46.9338 122.109C47.4025 121.432 47.7567 120.604 47.9963 119.625C48.2463 118.646 48.3713 117.521 48.3713 116.25ZM67.5081 122.844L73.4925 104.25H77.8206L69.6644 127H66.7425L67.5081 122.844ZM61.9769 104.25L67.9144 122.844L68.7269 127H65.7894L57.6644 104.25H61.9769ZM88.395 104.25V127H84.4731V104.25H88.395ZM112.001 123.891V127H99.9225V123.891H112.001ZM101.032 104.25V127H97.11V104.25H101.032ZM110.423 113.75V116.812H99.9225V113.75H110.423ZM111.923 104.25V107.375H99.9225V104.25H111.923ZM16.5625 161.891V165H5.14062V161.891H16.5625ZM6.23438 142.25V165H2.3125V142.25H6.23438ZM27.6213 142.25V165H23.6994V142.25H27.6213ZM44.8675 154.719H39.0706L39.0394 151.859H44.1019C44.956 151.859 45.68 151.734 46.2738 151.484C46.8779 151.224 47.3363 150.854 47.6488 150.375C47.9613 149.885 48.1175 149.297 48.1175 148.609C48.1175 147.849 47.9717 147.229 47.68 146.75C47.3883 146.271 46.9404 145.922 46.3363 145.703C45.7425 145.484 44.9821 145.375 44.055 145.375H40.2581V165H36.3363V142.25H44.055C45.305 142.25 46.4196 142.37 47.3988 142.609C48.3883 142.849 49.2269 143.224 49.9144 143.734C50.6123 144.234 51.1383 144.87 51.4925 145.641C51.8571 146.411 52.0394 147.328 52.0394 148.391C52.0394 149.328 51.8154 150.188 51.3675 150.969C50.9196 151.74 50.2581 152.37 49.3831 152.859C48.5081 153.349 47.4196 153.641 46.1175 153.734L44.8675 154.719ZM44.6956 165H37.8363L39.6019 161.891H44.6956C45.581 161.891 46.3206 161.745 46.9144 161.453C47.5081 161.151 47.9508 160.74 48.2425 160.219C48.5446 159.688 48.6956 159.068 48.6956 158.359C48.6956 157.62 48.5654 156.979 48.305 156.438C48.0446 155.885 47.6331 155.464 47.0706 155.172C46.5081 154.87 45.7738 154.719 44.8675 154.719H40.4613L40.4925 151.859H46.2269L47.1175 152.938C48.3675 152.979 49.3935 153.255 50.1956 153.766C51.0081 154.276 51.6123 154.938 52.0081 155.75C52.404 156.562 52.6019 157.438 52.6019 158.375C52.6019 159.823 52.2842 161.036 51.6488 162.016C51.0238 162.995 50.1227 163.74 48.9456 164.25C47.7685 164.75 46.3519 165 44.6956 165ZM60.395 142.25H68.4419C70.171 142.25 71.645 142.51 72.8638 143.031C74.0825 143.552 75.0148 144.323 75.6606 145.344C76.3169 146.354 76.645 147.604 76.645 149.094C76.645 150.229 76.4367 151.229 76.02 152.094C75.6033 152.958 75.0148 153.688 74.2544 154.281C73.494 154.865 72.5877 155.318 71.5356 155.641L70.3481 156.219H63.1138L63.0825 153.109H68.5044C69.4419 153.109 70.2231 152.943 70.8481 152.609C71.4731 152.276 71.9419 151.823 72.2544 151.25C72.5773 150.667 72.7388 150.01 72.7388 149.281C72.7388 148.49 72.5825 147.802 72.27 147.219C71.9679 146.625 71.4992 146.172 70.8638 145.859C70.2283 145.536 69.421 145.375 68.4419 145.375H64.3169V165H60.395V142.25ZM73.3794 165L68.0356 154.781L72.145 154.766L77.5669 164.797V165H73.3794ZM93.2506 145.281L86.4538 165H82.3444L90.9069 142.25H93.5319L93.2506 145.281ZM98.9381 165L92.1256 145.281L91.8288 142.25H94.4694L103.063 165H98.9381ZM98.61 156.562V159.672H86.235V156.562H98.61ZM109.45 142.25H117.497C119.226 142.25 120.7 142.51 121.919 143.031C123.137 143.552 124.07 144.323 124.716 145.344C125.372 146.354 125.7 147.604 125.7 149.094C125.7 150.229 125.492 151.229 125.075 152.094C124.658 152.958 124.07 153.688 123.309 154.281C122.549 154.865 121.643 155.318 120.591 155.641L119.403 156.219H112.169L112.137 153.109H117.559C118.497 153.109 119.278 152.943 119.903 152.609C120.528 152.276 120.997 151.823 121.309 151.25C121.632 150.667 121.794 150.01 121.794 149.281C121.794 148.49 121.637 147.802 121.325 147.219C121.023 146.625 120.554 146.172 119.919 145.859C119.283 145.536 118.476 145.375 117.497 145.375H113.372V165H109.45V142.25ZM122.434 165L117.091 154.781L121.2 154.766L126.622 164.797V165H122.434ZM134.868 142.25L140.149 153.109L145.431 142.25H149.774L142.118 156.625V165H138.165V156.625L130.509 142.25H134.868Z" fill="white"/>
</svg>
